<svg width="75" height="75" viewBox="0 0 75 75" fill="none" xmlns="http://www.w3.org/2000/svg">
<path d="M16.1264 43.3799C13.951 45.5566 13.951 49.0972 16.1264 51.2725L23.7246 58.8707C24.8129 59.959 26.2411 60.5025 27.6709 60.5025C29.1006 60.5025 30.5288 59.959 31.6171 58.8707L49.6568 40.831L34.166 25.3447L16.1264 43.3799Z" fill="#9AC7FE"/>
<path d="M59.0174 56.9224V71.9868C59.0174 73.6465 60.368 74.9971 62.0276 74.9971H71.9886C73.6483 74.9971 74.9989 73.6465 74.9989 71.9868V56.9224H59.0174Z" fill="#9AC7FE"/>
<path d="M62.5988 27.8907L64.4328 29.7247C65.0159 30.3106 65.7936 30.6329 66.6257 30.6329C67.4563 30.6329 68.2355 30.3106 68.8156 29.7262C69.4 29.1418 69.7224 28.3623 69.7224 27.5347C69.7224 26.7071 69.4 25.9279 68.8156 25.3433L63.0852 19.6129L69.1262 13.5719L69.7106 14.1563C70.295 14.7407 71.0744 15.063 71.9035 15.063H71.908C72.7371 15.0615 73.5148 14.7393 74.0936 14.1563C75.3021 12.9477 75.3021 10.9805 74.0936 9.77193L65.2311 0.909708C64.6495 0.3253 63.8717 0.00148742 63.0426 0C63.0411 0 63.0397 0 63.0382 0C62.2091 0 61.4298 0.322325 60.8453 0.906734C59.6397 2.11229 59.6382 4.07807 60.8453 5.29106L61.4312 5.87696L55.3901 11.918L49.6582 6.18605C49.0766 5.60164 48.2988 5.27783 47.4698 5.27634C47.4683 5.27634 47.4668 5.27634 47.4653 5.27634C46.6347 5.27634 45.8569 5.59866 45.2724 6.18307C44.0668 7.38863 44.0668 9.35441 45.2724 10.5674L47.1079 12.4029L16.1263 43.38C14.2337 45.2726 13.9877 48.1949 15.3866 50.357L13.4238 52.32C12.605 53.1388 12.605 54.4733 13.4238 55.2922L13.9599 55.8282L12.0792 57.7062C11.2662 58.528 11.2691 59.8596 12.0836 60.6741L12.3767 60.9671L0.342814 72.9992C-0.114271 73.4563 -0.114271 74.1975 0.342814 74.6544C0.571282 74.8829 0.871593 74.9972 1.17042 74.9972C1.46924 74.9972 1.76955 74.883 1.99802 74.6544L14.0302 62.6222L14.3233 62.9152C14.7333 63.3254 15.271 63.5304 15.8101 63.5304C16.3476 63.5304 16.8867 63.3253 17.2969 62.9152L19.172 61.0402L19.7052 61.5734C20.1007 61.9689 20.6295 62.1871 21.192 62.1871C21.7546 62.1871 22.2819 61.9689 22.6789 61.5734L24.6418 59.6104C25.5603 60.2051 26.6164 60.5026 27.6726 60.5026C29.1023 60.5026 30.5305 59.9591 31.6189 58.8707L48.8294 41.6602H48.8309C48.8309 41.6602 48.8309 41.6602 48.8309 41.6587L62.5988 27.8907ZM61.4283 17.956L60.063 16.5907L66.104 10.5497L67.4694 11.915L61.4283 17.956ZM62.4991 2.56209C62.6412 2.42004 62.8331 2.34091 63.0367 2.34091H63.0382C63.2403 2.34091 63.4292 2.41855 63.5714 2.56209L72.4366 11.4273C72.7325 11.7231 72.7325 12.2037 72.4351 12.5011C72.2959 12.6416 72.107 12.7193 71.9034 12.7193C71.9034 12.7193 71.9034 12.7193 71.9019 12.7193C71.6983 12.7193 71.5064 12.6401 71.3643 12.4981L62.502 3.63571C62.2106 3.34432 62.2091 2.85199 62.4991 2.56209V2.56209ZM63.0852 7.53231L64.4475 8.89465L58.4065 14.9357L57.0441 13.5733L63.0852 7.53231ZM46.9279 7.83991C47.0699 7.69786 47.2618 7.61873 47.4654 7.61873H47.4669C47.6691 7.61873 47.8581 7.69638 48.0002 7.83991L67.1589 26.9987C67.301 27.1407 67.3801 27.3313 67.3801 27.5347C67.3801 27.7384 67.301 27.9288 67.1574 28.0738C67.0169 28.2143 66.8278 28.292 66.6257 28.292C66.4236 28.292 66.2346 28.2143 66.091 28.0708L46.9294 8.91354C46.6393 8.62215 46.6378 8.12996 46.9279 7.83991V7.83991ZM60.9421 26.2355L56.5958 30.5817L53.4376 27.4235C52.9805 26.9664 52.2393 26.9664 51.7824 27.4235C51.3253 27.8806 51.3253 28.6218 51.7824 29.0787L54.9406 32.2369L50.8669 36.3107L46.1311 31.5749C45.674 31.1178 44.9328 31.1178 44.4759 31.5749C44.0188 32.032 44.0188 32.7732 44.4759 33.2301L49.2117 37.9659L48.0017 39.1759L35.8214 26.9987L48.7634 14.0582L60.9421 26.2355ZM15.8101 61.09L13.9072 59.1871L15.6137 57.4836L17.5151 59.3849L15.8101 61.09ZM21.1919 59.7497L15.249 53.8068L16.9541 52.1018L22.8969 58.0446L21.1919 59.7497ZM29.962 57.2155C28.6994 58.4782 26.6442 58.4782 25.3815 57.2155L17.7833 49.6173C16.5206 48.3547 16.5206 46.2995 17.7833 45.0368L34.1661 28.6569L46.3463 40.8341L45.1378 42.0426L41.9795 38.8844C41.5224 38.4273 40.7813 38.4273 40.3243 38.8844C39.8672 39.3415 39.8672 40.0827 40.3243 40.5396L43.4826 43.6978L39.4045 47.7746L34.6702 43.0402C34.2131 42.5832 33.4719 42.5832 33.015 43.0402C32.5579 43.4973 32.5579 44.2385 33.015 44.6955L37.7493 49.4298L33.6726 53.5065L30.5143 50.3483C30.0572 49.8912 29.316 49.8912 28.8591 50.3483C28.402 50.8053 28.402 51.5465 28.8591 52.0035L32.0174 55.1617L29.962 57.2155ZM73.2263 51.9069L72.4323 50.8567C71.8683 50.111 71.6062 49.3273 71.6062 48.3942V48.1042C72.5891 48.0002 73.3581 47.1681 73.3581 46.1603V44.234C73.3581 43.153 72.4791 42.2741 71.3981 42.2741H62.6163C61.5353 42.2741 60.6564 43.153 60.6564 44.234V46.1603C60.6564 47.1681 61.4254 48.0015 62.4082 48.1042V48.3942C62.4082 49.3273 62.146 50.1095 61.5835 50.8552L60.7852 51.9084C59.5942 53.4846 59.0156 55.2117 59.0156 57.1907V71.9901C59.0156 73.6498 60.3662 75.0004 62.0258 75.0004H71.9868C73.6465 75.0004 74.9971 73.6498 74.9971 71.9901V57.1894C75.0002 55.2145 74.4201 53.486 73.2263 51.9069V51.9069ZM63.0001 44.6148H71.0186V45.7735H63.0001V44.6148ZM62.6529 53.3204L63.4512 52.2672C64.3257 51.11 64.7505 49.8428 64.7505 48.3926V48.1143H69.2636V48.3926C69.2636 49.8413 69.6884 51.1085 70.5629 52.2657L71.3569 53.316C72.189 54.419 72.605 55.5703 72.6518 56.9209H61.3623C61.4108 55.569 61.8253 54.4177 62.6529 53.3204V53.3204ZM71.9899 72.6565H62.029C61.6598 72.6565 61.361 72.3562 61.361 71.9885V59.2663H72.6593V71.9885C72.6579 72.3562 72.3576 72.6565 71.9899 72.6565Z" fill="#5439FC"/>
</svg>
