<svg width="75" height="75" viewBox="0 0 75 75" fill="none" xmlns="http://www.w3.org/2000/svg">
<path d="M25.25 16V11H14V16H16.5H24H25.25Z" fill="#006244"/>
<path d="M51.25 16H58.75H61.25V11H50V16H51.25Z" fill="#006244"/>
<path d="M34 22H39V17H44V12H39V7H34V12H29V17H34V22Z" fill="#21CC98"/>
<path d="M59 27H74V32H59V27Z" fill="#21CC98"/>
<path d="M1 28H16V33H1V28Z" fill="#21CC98"/>
<path d="M29.9999 18.5H33.7499V22.25C33.7499 22.5815 33.8816 22.8995 34.116 23.1339C34.3504 23.3683 34.6684 23.5 34.9999 23.5H39.9999C40.3314 23.5 40.6494 23.3683 40.8838 23.1339C41.1182 22.8995 41.2499 22.5815 41.2499 22.25V18.5H44.9999C45.3314 18.5 45.6494 18.3683 45.8838 18.1339C46.1182 17.8995 46.2499 17.5815 46.2499 17.25V12.25C46.2499 11.9185 46.1182 11.6005 45.8838 11.3661C45.6494 11.1317 45.3314 11 44.9999 11H41.2499V7.25C41.2499 6.91848 41.1182 6.60054 40.8838 6.36612C40.6494 6.1317 40.3314 6 39.9999 6H34.9999C34.6684 6 34.3504 6.1317 34.116 6.36612C33.8816 6.60054 33.7499 6.91848 33.7499 7.25V11H29.9999C29.6684 11 29.3504 11.1317 29.116 11.3661C28.8816 11.6005 28.7499 11.9185 28.7499 12.25V17.25C28.7499 17.5815 28.8816 17.8995 29.116 18.1339C29.3504 18.3683 29.6684 18.5 29.9999 18.5ZM31.2499 13.5H34.9999C35.3314 13.5 35.6494 13.3683 35.8838 13.1339C36.1182 12.8995 36.2499 12.5815 36.2499 12.25V8.5H38.7499V12.25C38.7499 12.5815 38.8816 12.8995 39.116 13.1339C39.3504 13.3683 39.6684 13.5 39.9999 13.5H43.7499V16H39.9999C39.6684 16 39.3504 16.1317 39.116 16.3661C38.8816 16.6005 38.7499 16.9185 38.7499 17.25V21H36.2499V17.25C36.2499 16.9185 36.1182 16.6005 35.8838 16.3661C35.6494 16.1317 35.3314 16 34.9999 16H31.2499V13.5Z" fill="#21CC98"/>
<path d="M35 56H40C40.3315 56 40.6494 55.8683 40.8838 55.6339C41.1183 55.3995 41.25 55.0815 41.25 54.75V49.75C41.25 49.4185 41.1183 49.1005 40.8838 48.8661C40.6494 48.6317 40.3315 48.5 40 48.5H35C34.6684 48.5 34.3505 48.6317 34.1161 48.8661C33.8817 49.1005 33.75 49.4185 33.75 49.75V54.75C33.75 55.0815 33.8817 55.3995 34.1161 55.6339C34.3505 55.8683 34.6684 56 35 56ZM36.25 51H38.75V53.5H36.25V51Z" fill="#006244"/>
<path d="M45.0001 56H50.0001C50.3316 56 50.6495 55.8683 50.884 55.6339C51.1184 55.3995 51.2501 55.0815 51.2501 54.75V49.75C51.2501 49.4185 51.1184 49.1005 50.884 48.8661C50.6495 48.6317 50.3316 48.5 50.0001 48.5H45.0001C44.6686 48.5 44.3506 48.6317 44.1162 48.8661C43.8818 49.1005 43.7501 49.4185 43.7501 49.75V54.75C43.7501 55.0815 43.8818 55.3995 44.1162 55.6339C44.3506 55.8683 44.6686 56 45.0001 56ZM46.2501 51H48.7501V53.5H46.2501V51Z" fill="#006244"/>
<path d="M35 47.25H40C40.3315 47.25 40.6494 47.1183 40.8838 46.8839C41.1183 46.6495 41.25 46.3315 41.25 46V41C41.25 40.6685 41.1183 40.3505 40.8838 40.1161C40.6494 39.8817 40.3315 39.75 40 39.75H35C34.6684 39.75 34.3505 39.8817 34.1161 40.1161C33.8817 40.3505 33.75 40.6685 33.75 41V46C33.75 46.3315 33.8817 46.6495 34.1161 46.8839C34.3505 47.1183 34.6684 47.25 35 47.25ZM36.25 42.25H38.75V44.75H36.25V42.25Z" fill="#006244"/>
<path d="M45.0001 47.25H50.0001C50.3316 47.25 50.6495 47.1183 50.884 46.8839C51.1184 46.6495 51.2501 46.3315 51.2501 46V41C51.2501 40.6685 51.1184 40.3505 50.884 40.1161C50.6495 39.8817 50.3316 39.75 50.0001 39.75H45.0001C44.6686 39.75 44.3506 39.8817 44.1162 40.1161C43.8818 40.3505 43.7501 40.6685 43.7501 41V46C43.7501 46.3315 43.8818 46.6495 44.1162 46.8839C44.3506 47.1183 44.6686 47.25 45.0001 47.25ZM46.2501 42.25H48.7501V44.75H46.2501V42.25Z" fill="#006244"/>
<path d="M35 38.5H40C40.3315 38.5 40.6494 38.3683 40.8838 38.1339C41.1183 37.8995 41.25 37.5815 41.25 37.25V32.25C41.25 31.9185 41.1183 31.6005 40.8838 31.3661C40.6494 31.1317 40.3315 31 40 31H35C34.6684 31 34.3505 31.1317 34.1161 31.3661C33.8817 31.6005 33.75 31.9185 33.75 32.25V37.25C33.75 37.5815 33.8817 37.8995 34.1161 38.1339C34.3505 38.3683 34.6684 38.5 35 38.5ZM36.25 33.5H38.75V36H36.25V33.5Z" fill="#006244"/>
<path d="M30.0001 56C30.3316 56 30.6495 55.8683 30.8839 55.6339C31.1184 55.3995 31.2501 55.0815 31.2501 54.75V49.75C31.2501 49.4185 31.1184 49.1005 30.8839 48.8661C30.6495 48.6317 30.3316 48.5 30.0001 48.5H25.0001C24.6685 48.5 24.3506 48.6317 24.1162 48.8661C23.8818 49.1005 23.7501 49.4185 23.7501 49.75V54.75C23.7501 55.0815 23.8818 55.3995 24.1162 55.6339C24.3506 55.8683 24.6685 56 25.0001 56H30.0001ZM26.2501 51H28.7501V53.5H26.2501V51Z" fill="#006244"/>
<path d="M25.0001 47.25H30.0001C30.3316 47.25 30.6495 47.1183 30.8839 46.8839C31.1184 46.6495 31.2501 46.3315 31.2501 46V41C31.2501 40.6685 31.1184 40.3505 30.8839 40.1161C30.6495 39.8817 30.3316 39.75 30.0001 39.75H25.0001C24.6685 39.75 24.3506 39.8817 24.1162 40.1161C23.8818 40.3505 23.7501 40.6685 23.7501 41V46C23.7501 46.3315 23.8818 46.6495 24.1162 46.8839C24.3506 47.1183 24.6685 47.25 25.0001 47.25ZM26.2501 42.25H28.7501V44.75H26.2501V42.25Z" fill="#006244"/>
<path d="M25.0001 38.5H30.0001C30.3316 38.5 30.6495 38.3683 30.8839 38.1339C31.1184 37.8995 31.2501 37.5815 31.2501 37.25V32.25C31.2501 31.9185 31.1184 31.6005 30.8839 31.3661C30.6495 31.1317 30.3316 31 30.0001 31H25.0001C24.6685 31 24.3506 31.1317 24.1162 31.3661C23.8818 31.6005 23.7501 31.9185 23.7501 32.25V37.25C23.7501 37.5815 23.8818 37.8995 24.1162 38.1339C24.3506 38.3683 24.6685 38.5 25.0001 38.5ZM26.2501 33.5H28.7501V36H26.2501V33.5Z" fill="#006244"/>
<path d="M45.0001 38.5H50.0001C50.3316 38.5 50.6495 38.3683 50.884 38.1339C51.1184 37.8995 51.2501 37.5815 51.2501 37.25V32.25C51.2501 31.9185 51.1184 31.6005 50.884 31.3661C50.6495 31.1317 50.3316 31 50.0001 31H45.0001C44.6686 31 44.3506 31.1317 44.1162 31.3661C43.8818 31.6005 43.7501 31.9185 43.7501 32.25V37.25C43.7501 37.5815 43.8818 37.8995 44.1162 38.1339C44.3506 38.3683 44.6686 38.5 45.0001 38.5ZM46.2501 33.5H48.7501V36H46.2501V33.5Z" fill="#006244"/>
<path d="M63.7501 53.5H68.7501C69.0816 53.5 69.3995 53.3683 69.634 53.1339C69.8684 52.8995 70.0001 52.5815 70.0001 52.25V47.25C70.0001 46.9185 69.8684 46.6005 69.634 46.3661C69.3995 46.1317 69.0816 46 68.7501 46H63.7501C63.4186 46 63.1006 46.1317 62.8662 46.3661C62.6318 46.6005 62.5001 46.9185 62.5001 47.25V52.25C62.5001 52.5815 62.6318 52.8995 62.8662 53.1339C63.1006 53.3683 63.4186 53.5 63.7501 53.5ZM65.0001 48.5H67.5001V51H65.0001V48.5Z" fill="#21CC98"/>
<path d="M63.7501 71H68.7501C69.0816 71 69.3995 70.8683 69.634 70.6339C69.8684 70.3995 70.0001 70.0815 70.0001 69.75V64.75C70.0001 64.4185 69.8684 64.1005 69.634 63.8661C69.3995 63.6317 69.0816 63.5 68.7501 63.5H63.7501C63.4186 63.5 63.1006 63.6317 62.8662 63.8661C62.6318 64.1005 62.5001 64.4185 62.5001 64.75V69.75C62.5001 70.0815 62.6318 70.3995 62.8662 70.6339C63.1006 70.8683 63.4186 71 63.7501 71ZM65.0001 66H67.5001V68.5H65.0001V66Z" fill="#21CC98"/>
<path d="M63.7501 62.25H68.7501C69.0816 62.25 69.3995 62.1183 69.634 61.8839C69.8684 61.6495 70.0001 61.3315 70.0001 61V56C70.0001 55.6685 69.8684 55.3505 69.634 55.1161C69.3995 54.8817 69.0816 54.75 68.7501 54.75H63.7501C63.4186 54.75 63.1006 54.8817 62.8662 55.1161C62.6318 55.3505 62.5001 55.6685 62.5001 56V61C62.5001 61.3315 62.6318 61.6495 62.8662 61.8839C63.1006 62.1183 63.4186 62.25 63.7501 62.25ZM65.0001 57.25H67.5001V59.75H65.0001V57.25Z" fill="#21CC98"/>
<path d="M63.7501 44.75H68.7501C69.0816 44.75 69.3995 44.6183 69.634 44.3839C69.8684 44.1495 70.0001 43.8315 70.0001 43.5V38.5C70.0001 38.1685 69.8684 37.8505 69.634 37.6161C69.3995 37.3817 69.0816 37.25 68.7501 37.25H63.7501C63.4186 37.25 63.1006 37.3817 62.8662 37.6161C62.6318 37.8505 62.5001 38.1685 62.5001 38.5V43.5C62.5001 43.8315 62.6318 44.1495 62.8662 44.3839C63.1006 44.6183 63.4186 44.75 63.7501 44.75ZM65.0001 39.75H67.5001V42.25H65.0001V39.75Z" fill="#21CC98"/>
<path d="M11.2501 46H6.25006C5.91854 46 5.60059 46.1317 5.36617 46.3661C5.13175 46.6005 5.00006 46.9185 5.00006 47.25V52.25C5.00006 52.5815 5.13175 52.8995 5.36617 53.1339C5.60059 53.3683 5.91854 53.5 6.25006 53.5H11.2501C11.5816 53.5 11.8995 53.3683 12.1339 53.1339C12.3684 52.8995 12.5001 52.5815 12.5001 52.25V47.25C12.5001 46.9185 12.3684 46.6005 12.1339 46.3661C11.8995 46.1317 11.5816 46 11.2501 46ZM10.0001 51H7.50006V48.5H10.0001V51Z" fill="#21CC98"/>
<path d="M11.2501 63.5H6.25006C5.91854 63.5 5.60059 63.6317 5.36617 63.8661C5.13175 64.1005 5.00006 64.4185 5.00006 64.75V69.75C5.00006 70.0815 5.13175 70.3995 5.36617 70.6339C5.60059 70.8683 5.91854 71 6.25006 71H11.2501C11.5816 71 11.8995 70.8683 12.1339 70.6339C12.3684 70.3995 12.5001 70.0815 12.5001 69.75V64.75C12.5001 64.4185 12.3684 64.1005 12.1339 63.8661C11.8995 63.6317 11.5816 63.5 11.2501 63.5ZM10.0001 68.5H7.50006V66H10.0001V68.5Z" fill="#21CC98"/>
<path d="M11.2501 54.75H6.25006C5.91854 54.75 5.60059 54.8817 5.36617 55.1161C5.13175 55.3505 5.00006 55.6685 5.00006 56V61C5.00006 61.3315 5.13175 61.6495 5.36617 61.8839C5.60059 62.1183 5.91854 62.25 6.25006 62.25H11.2501C11.5816 62.25 11.8995 62.1183 12.1339 61.8839C12.3684 61.6495 12.5001 61.3315 12.5001 61V56C12.5001 55.6685 12.3684 55.3505 12.1339 55.1161C11.8995 54.8817 11.5816 54.75 11.2501 54.75ZM10.0001 59.75H7.50006V57.25H10.0001V59.75Z" fill="#21CC98"/>
<path d="M11.2501 37.25H6.25006C5.91854 37.25 5.60059 37.3817 5.36617 37.6161C5.13175 37.8505 5.00006 38.1685 5.00006 38.5V43.5C5.00006 43.8315 5.13175 44.1495 5.36617 44.3839C5.60059 44.6183 5.91854 44.75 6.25006 44.75H11.2501C11.5816 44.75 11.8995 44.6183 12.1339 44.3839C12.3684 44.1495 12.5001 43.8315 12.5001 43.5V38.5C12.5001 38.1685 12.3684 37.8505 12.1339 37.6161C11.8995 37.3817 11.5816 37.25 11.2501 37.25ZM10.0001 42.25H7.50006V39.75H10.0001V42.25Z" fill="#21CC98"/>
<path d="M73.75 26.25H60V17.5H61.25C61.5815 17.5 61.8995 17.3683 62.1339 17.1339C62.3683 16.8995 62.5 16.5815 62.5 16.25V11.25C62.5 10.9185 62.3683 10.6005 62.1339 10.3661C61.8995 10.1317 61.5815 10 61.25 10H51.25V1.25C51.25 0.918479 51.1183 0.600537 50.8839 0.366116C50.6495 0.131696 50.3315 0 50 0H25C24.6685 0 24.3505 0.131696 24.1161 0.366116C23.8817 0.600537 23.75 0.918479 23.75 1.25V10H13.75C13.4185 10 13.1005 10.1317 12.8661 10.3661C12.6317 10.6005 12.5 10.9185 12.5 11.25V16.25C12.5 16.5815 12.6317 16.8995 12.8661 17.1339C13.1005 17.3683 13.4185 17.5 13.75 17.5H15V26.25H1.25C0.918479 26.25 0.600537 26.3817 0.366116 26.6161C0.131696 26.8505 0 27.1685 0 27.5V73.75C0 74.0815 0.131696 74.3995 0.366116 74.6339C0.600537 74.8683 0.918479 75 1.25 75H73.75C74.0815 75 74.3995 74.8683 74.6339 74.6339C74.8683 74.3995 75 74.0815 75 73.75V27.5C75 27.1685 74.8683 26.8505 74.6339 26.6161C74.3995 26.3817 74.0815 26.25 73.75 26.25ZM15 72.5H2.5V33.75H15V72.5ZM15 31.25H2.5V28.75H15V31.25ZM51.25 12.5H60V15H51.25V12.5ZM26.25 2.5H48.75V25H26.25V2.5ZM15 12.5H23.75V15H15V12.5ZM36.25 72.5H28.75V60H36.25V72.5ZM46.25 72.5H38.75V60H46.25V72.5ZM57.5 72.5H48.75V58.75C48.75 58.4185 48.6183 58.1005 48.3839 57.8661C48.1495 57.6317 47.8315 57.5 47.5 57.5H27.5C27.1685 57.5 26.8505 57.6317 26.6161 57.8661C26.3817 58.1005 26.25 58.4185 26.25 58.75V72.5H17.5V17.5H23.75V26.25C23.75 26.5815 23.8817 26.8995 24.1161 27.1339C24.3505 27.3683 24.6685 27.5 25 27.5H50C50.3315 27.5 50.6495 27.3683 50.8839 27.1339C51.1183 26.8995 51.25 26.5815 51.25 26.25V17.5H57.5V72.5ZM72.5 72.5H60V33.75H72.5V72.5ZM72.5 31.25H60V28.75H72.5V31.25Z" fill="#006244"/>
</svg>
