<svg width="64" height="75" viewBox="0 0 64 75" fill="none" xmlns="http://www.w3.org/2000/svg">
<path d="M54.4609 5.61016V69.3897C54.4609 71.9989 52.3458 74.1141 49.7365 74.1141H5.61016C3.00089 74.1141 0.885742 71.9989 0.885742 69.3897V5.61016C0.885742 3.00089 3.00089 0.885742 5.61016 0.885742H49.7366C52.3458 0.885742 54.4609 3.00104 54.4609 5.61016V5.61016Z" fill="#FEFDFE"/>
<path opacity="0.5" d="M54.4627 5.61016V69.3897C54.4627 71.9998 52.3485 74.1141 49.7383 74.1141H41.6241C44.2343 74.1141 46.3485 71.9998 46.3485 69.3897V5.61016C46.3485 2.99982 44.2343 0.885742 41.6241 0.885742H49.7383C52.3485 0.885742 54.4627 2.99982 54.4627 5.61016Z" fill="#F9E1BE"/>
<path d="M29.8746 68.1193C29.8746 69.3364 28.8938 70.324 27.6767 70.324C26.4596 70.324 25.4718 69.3364 25.4718 68.1193C25.4718 66.9022 26.4595 65.9146 27.6767 65.9146C28.8938 65.9146 29.8746 66.9022 29.8746 68.1193Z" fill="#B8DAFF"/>
<path d="M31.8785 17.4524C31.8785 19.7739 29.9898 21.6526 27.6683 21.6526C25.3468 21.6526 23.4679 19.7739 23.4679 17.4524C23.4679 15.1309 25.3467 13.2422 27.6683 13.2422C29.9898 13.2422 31.8785 15.1308 31.8785 17.4524Z" fill="#FF9800"/>
<path d="M19.7025 34.5115C19.7025 28.9568 23.2638 24.438 27.6643 24.438C32.0647 24.438 35.6445 28.9568 35.6445 34.5115H19.7025Z" fill="#FF9800"/>
<path opacity="0.2" d="M35.6477 34.5119H31.8799C31.8799 29.7757 29.2816 25.7953 25.7855 24.7205C26.3879 24.5315 27.0139 24.437 27.6634 24.437C32.0689 24.437 35.6477 28.9606 35.6477 34.5119V34.5119Z" fill="#FF9800"/>
<path d="M62.7817 18.3966C62.7817 23.0027 59.0611 26.7232 54.4667 26.7232C49.8604 26.7232 46.1398 23.0027 46.1398 18.3966C46.1398 13.8021 49.8604 10.0815 54.4667 10.0815C59.0613 10.0815 62.7817 13.8021 62.7817 18.3966Z" fill="#F3E7D4"/>
<path d="M36.3096 6.0557H37.59C38.079 6.0557 38.4757 5.659 38.4757 5.16994C38.4757 4.68089 38.079 4.28418 37.59 4.28418H36.3096C35.8206 4.28418 35.4239 4.68089 35.4239 5.16994C35.4239 5.659 35.8206 6.0557 36.3096 6.0557Z" fill="#FF9800"/>
<path d="M17.7563 6.0557H31.7791C32.2681 6.0557 32.6648 5.659 32.6648 5.16994C32.6648 4.68089 32.2681 4.28418 31.7791 4.28418H17.7563C17.2673 4.28418 16.8706 4.68089 16.8706 5.16994C16.8706 5.659 17.2673 6.0557 17.7563 6.0557V6.0557Z" fill="#FF9800"/>
<path d="M27.6769 65.0288C25.9721 65.0288 24.5858 66.4153 24.5858 68.1188C24.5858 69.8236 25.9723 71.21 27.6769 71.21C29.3771 71.21 30.7607 69.8235 30.7607 68.1188C30.7607 66.4153 29.3771 65.0288 27.6769 65.0288ZM27.6769 69.4383C26.9492 69.4383 26.3573 68.8466 26.3573 68.1187C26.3573 67.392 26.949 66.8003 27.6769 66.8003C28.4001 66.8003 28.989 67.392 28.989 68.1187C28.989 68.8466 28.4002 69.4383 27.6769 69.4383Z" fill="#FF9800"/>
<path d="M27.6684 12.3564C24.8639 12.3564 22.5824 14.6425 22.5824 17.4523C22.5824 20.2574 24.8639 22.5389 27.6684 22.5389C30.4788 22.5389 32.7648 20.2574 32.7648 17.4523C32.7648 14.6425 30.4786 12.3564 27.6684 12.3564V12.3564ZM27.6684 20.7672C25.8407 20.7672 24.3541 19.2804 24.3541 17.4523C24.3541 15.6195 25.8409 14.1281 27.6684 14.1281C29.5018 14.1281 30.9932 15.6195 30.9932 17.4523C30.9932 19.2804 29.5018 20.7672 27.6684 20.7672Z" fill="#FF9800"/>
<path d="M18.8163 34.5114C18.8163 35.0004 19.213 35.3971 19.7021 35.3971H35.6441H35.6677C36.1568 35.3971 36.5535 35.0004 36.5535 34.5114C36.5535 34.4387 36.5449 34.3684 36.5281 34.3003C36.437 28.3545 32.4957 23.5527 27.6641 23.5527C22.7852 23.5527 18.8163 28.4686 18.8163 34.5114V34.5114ZM34.7255 33.6255H20.6208C20.9646 28.9738 23.9922 25.3243 27.6643 25.3243C31.3454 25.3244 34.3806 28.9738 34.7255 33.6255Z" fill="#FF9800"/>
<path d="M11.3086 42.6953H44.0376C44.5267 42.6953 44.9234 42.2986 44.9234 41.8096C44.9234 41.3205 44.5267 40.9238 44.0376 40.9238H11.3086C10.8196 40.9238 10.4229 41.3205 10.4229 41.8096C10.4229 42.2985 10.8196 42.6953 11.3086 42.6953Z" fill="#FF9800"/>
<path d="M11.3086 50.8174H44.0376C44.5267 50.8174 44.9234 50.4207 44.9234 49.9317C44.9234 49.4426 44.5267 49.0459 44.0376 49.0459H11.3086C10.8196 49.0459 10.4229 49.4426 10.4229 49.9317C10.4229 50.4207 10.8196 50.8174 11.3086 50.8174Z" fill="#FF9800"/>
<path d="M35.7883 57.1694H19.5579C19.0689 57.1694 18.6721 57.5661 18.6721 58.0552C18.6721 58.5443 19.0689 58.941 19.5579 58.941H35.7883C36.2774 58.941 36.6741 58.5443 36.6741 58.0552C36.6742 57.5663 36.2774 57.1694 35.7883 57.1694Z" fill="#FF9800"/>
<path d="M0 5.61017V69.3898C0 72.4832 2.51676 75 5.61017 75H49.736C52.8295 75 55.3462 72.4832 55.3462 69.3898V27.5647C60.0082 27.1199 63.6675 23.1795 63.6675 18.3971C63.6675 13.6201 60.0082 9.68538 55.3462 9.24081V5.61017C55.3462 2.51676 52.8295 0 49.736 0H5.61017C2.51676 0 0 2.51676 0 5.61017V5.61017ZM54.4669 10.9678C58.5633 10.9678 61.8961 14.3001 61.8961 18.3971C61.8961 22.4998 58.5633 25.8378 54.4669 25.8378C50.3636 25.8378 47.0255 22.4999 47.0255 18.3971C47.0255 14.3001 50.3635 10.9678 54.4669 10.9678ZM1.77167 5.61017C1.77167 3.49364 3.4938 1.77152 5.61033 1.77152H49.7362C51.8527 1.77152 53.5748 3.49364 53.5748 5.61017V9.24127C48.9119 9.6909 45.254 13.6239 45.254 18.3969C45.254 23.1755 48.9118 27.1137 53.5748 27.5641V69.3898C53.5748 71.5064 51.8527 73.2285 49.7362 73.2285H5.61017C3.49364 73.2285 1.77152 71.5064 1.77152 69.3898V5.61017H1.77167Z" fill="#FF9800"/>
<path d="M52.5506 21.2253C52.8966 21.5714 53.4572 21.5714 53.8031 21.2253L58.1965 16.8319C58.5426 16.4859 58.5426 15.9253 58.1965 15.5794C57.8504 15.2333 57.2899 15.2333 56.9439 15.5794L53.1769 19.3464L51.9779 18.148C51.6318 17.8019 51.0713 17.8019 50.7254 18.148C50.3793 18.4941 50.3793 19.0546 50.7254 19.4005L52.5506 21.2253Z" fill="#FF9800"/>
</svg>
